<svg width="20" height="20" viewBox="0 0 20 20" fill="none" xmlns="http://www.w3.org/2000/svg">
<path fill-rule="evenodd" clip-rule="evenodd" d="M5 3.95866C5 3.38336 5.46637 2.91699 6.04167 2.91699H10.2083C12.3945 2.91699 14.1667 4.6892 14.1667 6.87533C14.1667 7.7217 13.901 8.50603 13.4486 9.1495C14.8583 9.81745 15.8333 11.2534 15.8333 12.917C15.8333 15.2182 13.9679 17.0837 11.6667 17.0837H6.04167C5.46637 17.0837 5 16.6173 5 16.042V3.95866ZM7.08333 10.8337V15.0003H11.6667C12.8173 15.0003 13.75 14.0676 13.75 12.917C13.75 11.7664 12.8173 10.8337 11.6667 10.8337H7.08333ZM7.08333 8.75033L10.2094 8.75033C11.2444 8.74975 12.0833 7.91051 12.0833 6.87533C12.0833 5.83979 11.2439 5.00033 10.2083 5.00033H7.08333V8.75033Z" fill="#111111"/>
</svg>
